<mxfile host="app.diagrams.net" modified="2022-01-11T10:35:43.487Z" agent="5.0 (Windows)" etag="WvxfPHjxhVfYXScqdJeV" version="16.2.4" type="github">
  <diagram id="gox6-V4GhpouUtKm1bLJ" name="Page-1">
    <mxGraphModel dx="780" dy="724" grid="1" gridSize="10" guides="1" tooltips="1" connect="1" arrows="1" fold="1" page="1" pageScale="1" pageWidth="827" pageHeight="1169" math="0" shadow="0">
      <root>
        <mxCell id="0" />
        <mxCell id="1" parent="0" />
        <mxCell id="uRyDppkniiyFRWta832O-43" style="edgeStyle=orthogonalEdgeStyle;rounded=0;orthogonalLoop=1;jettySize=auto;html=1;exitX=1;exitY=0;exitDx=0;exitDy=0;entryX=0.5;entryY=0;entryDx=0;entryDy=0;fillColor=#e51400;strokeColor=#B20000;" parent="1" source="uRyDppkniiyFRWta832O-6" target="uRyDppkniiyFRWta832O-10" edge="1">
          <mxGeometry relative="1" as="geometry">
            <Array as="points">
              <mxPoint x="170" y="60" />
              <mxPoint x="660" y="60" />
            </Array>
          </mxGeometry>
        </mxCell>
        <mxCell id="uRyDppkniiyFRWta832O-53" style="edgeStyle=orthogonalEdgeStyle;rounded=0;orthogonalLoop=1;jettySize=auto;html=1;exitX=0.25;exitY=1;exitDx=0;exitDy=0;fillColor=#60a917;strokeColor=#2D7600;" parent="1" source="uRyDppkniiyFRWta832O-6" target="uRyDppkniiyFRWta832O-14" edge="1">
          <mxGeometry relative="1" as="geometry" />
        </mxCell>
        <mxCell id="uRyDppkniiyFRWta832O-56" value="manger si&amp;gt;" style="edgeLabel;html=1;align=center;verticalAlign=middle;resizable=0;points=[];fontColor=#66CC00;" parent="uRyDppkniiyFRWta832O-53" vertex="1" connectable="0">
          <mxGeometry x="-0.4621" relative="1" as="geometry">
            <mxPoint as="offset" />
          </mxGeometry>
        </mxCell>
        <mxCell id="uRyDppkniiyFRWta832O-57" style="edgeStyle=orthogonalEdgeStyle;rounded=0;orthogonalLoop=1;jettySize=auto;html=1;exitX=0;exitY=1;exitDx=0;exitDy=0;fontColor=#66CC00;strokeColor=#FF0080;" parent="1" source="uRyDppkniiyFRWta832O-6" target="uRyDppkniiyFRWta832O-19" edge="1">
          <mxGeometry relative="1" as="geometry" />
        </mxCell>
        <mxCell id="uRyDppkniiyFRWta832O-58" value="prendre" style="edgeLabel;html=1;align=center;verticalAlign=middle;resizable=0;points=[];fontColor=#FF0080;" parent="uRyDppkniiyFRWta832O-57" vertex="1" connectable="0">
          <mxGeometry x="0.6392" y="1" relative="1" as="geometry">
            <mxPoint as="offset" />
          </mxGeometry>
        </mxCell>
        <mxCell id="uRyDppkniiyFRWta832O-6" value="perssonage" style="swimlane;fontStyle=0;childLayout=stackLayout;horizontal=1;startSize=26;fillColor=none;horizontalStack=0;resizeParent=1;resizeParentMax=0;resizeLast=0;collapsible=1;marginBottom=0;" parent="1" vertex="1">
          <mxGeometry x="30" y="40" width="140" height="160" as="geometry" />
        </mxCell>
        <mxCell id="uRyDppkniiyFRWta832O-9" value="color&#xa;vitesse&#xa;acceleration&#xa;masse&#xa;vitesse mini&#xa;vitesse maxi&#xa;taille&#xa;position&#xa;&#xa;&#xa;&#xa;&#xa;&#xa;&#xa;&#xa;&#xa;&#xa;" style="text;strokeColor=none;fillColor=none;align=left;verticalAlign=top;spacingLeft=4;spacingRight=4;overflow=hidden;rotatable=0;points=[[0,0.5],[1,0.5]];portConstraint=eastwest;" parent="uRyDppkniiyFRWta832O-6" vertex="1">
          <mxGeometry y="26" width="140" height="134" as="geometry" />
        </mxCell>
        <mxCell id="uRyDppkniiyFRWta832O-10" value="Fenetre" style="swimlane;fontStyle=0;childLayout=stackLayout;horizontal=1;startSize=26;fillColor=#e51400;horizontalStack=0;resizeParent=1;resizeParentMax=0;resizeLast=0;collapsible=1;marginBottom=0;fontColor=#ffffff;strokeColor=#B20000;" parent="1" vertex="1">
          <mxGeometry x="590" y="160" width="140" height="120" as="geometry" />
        </mxCell>
        <mxCell id="uRyDppkniiyFRWta832O-11" value="fond" style="text;strokeColor=none;fillColor=none;align=left;verticalAlign=top;spacingLeft=4;spacingRight=4;overflow=hidden;rotatable=0;points=[[0,0.5],[1,0.5]];portConstraint=eastwest;" parent="uRyDppkniiyFRWta832O-10" vertex="1">
          <mxGeometry y="26" width="140" height="26" as="geometry" />
        </mxCell>
        <mxCell id="uRyDppkniiyFRWta832O-12" value="fps" style="text;strokeColor=none;fillColor=none;align=left;verticalAlign=top;spacingLeft=4;spacingRight=4;overflow=hidden;rotatable=0;points=[[0,0.5],[1,0.5]];portConstraint=eastwest;" parent="uRyDppkniiyFRWta832O-10" vertex="1">
          <mxGeometry y="52" width="140" height="26" as="geometry" />
        </mxCell>
        <mxCell id="uRyDppkniiyFRWta832O-13" value="taille&#xa;score(temps)&#xa;" style="text;strokeColor=none;fillColor=none;align=left;verticalAlign=top;spacingLeft=4;spacingRight=4;overflow=hidden;rotatable=0;points=[[0,0.5],[1,0.5]];portConstraint=eastwest;" parent="uRyDppkniiyFRWta832O-10" vertex="1">
          <mxGeometry y="78" width="140" height="42" as="geometry" />
        </mxCell>
        <mxCell id="uRyDppkniiyFRWta832O-44" style="edgeStyle=orthogonalEdgeStyle;rounded=0;orthogonalLoop=1;jettySize=auto;html=1;exitX=1;exitY=0;exitDx=0;exitDy=0;fillColor=#e51400;strokeColor=#B20000;" parent="1" source="uRyDppkniiyFRWta832O-14" target="uRyDppkniiyFRWta832O-12" edge="1">
          <mxGeometry relative="1" as="geometry">
            <Array as="points">
              <mxPoint x="380" y="230" />
              <mxPoint x="380" y="230" />
            </Array>
          </mxGeometry>
        </mxCell>
        <mxCell id="uRyDppkniiyFRWta832O-52" style="edgeStyle=orthogonalEdgeStyle;rounded=0;orthogonalLoop=1;jettySize=auto;html=1;exitX=0.75;exitY=0;exitDx=0;exitDy=0;fillColor=#1ba1e2;strokeColor=#006EAF;" parent="1" source="uRyDppkniiyFRWta832O-14" edge="1">
          <mxGeometry relative="1" as="geometry">
            <mxPoint x="145" y="200" as="targetPoint" />
            <Array as="points">
              <mxPoint x="145" y="200" />
            </Array>
          </mxGeometry>
        </mxCell>
        <mxCell id="uRyDppkniiyFRWta832O-54" value="manger si&amp;gt;" style="edgeLabel;html=1;align=center;verticalAlign=middle;resizable=0;points=[];rotation=-90;fontColor=#3399FF;" parent="uRyDppkniiyFRWta832O-52" vertex="1" connectable="0">
          <mxGeometry x="0.2" y="-1" relative="1" as="geometry">
            <mxPoint x="-16" as="offset" />
          </mxGeometry>
        </mxCell>
        <mxCell id="uRyDppkniiyFRWta832O-14" value="Ennemis" style="swimlane;fontStyle=0;childLayout=stackLayout;horizontal=1;startSize=26;fillColor=none;horizontalStack=0;resizeParent=1;resizeParentMax=0;resizeLast=0;collapsible=1;marginBottom=0;" parent="1" vertex="1">
          <mxGeometry x="40" y="300" width="140" height="150" as="geometry" />
        </mxCell>
        <mxCell id="uRyDppkniiyFRWta832O-15" value="color&#xa;vitesse&#xa;acceleration&#xa;masse&#xa;vitesse mini&#xa;vitesse maxi&#xa;taille&#xa;position&#xa;&#xa;&#xa;&#xa;" style="text;strokeColor=none;fillColor=none;align=left;verticalAlign=top;spacingLeft=4;spacingRight=4;overflow=hidden;rotatable=0;points=[[0,0.5],[1,0.5]];portConstraint=eastwest;" parent="uRyDppkniiyFRWta832O-14" vertex="1">
          <mxGeometry y="26" width="140" height="124" as="geometry" />
        </mxCell>
        <mxCell id="uRyDppkniiyFRWta832O-45" style="edgeStyle=orthogonalEdgeStyle;rounded=0;orthogonalLoop=1;jettySize=auto;html=1;exitX=1;exitY=0;exitDx=0;exitDy=0;entryX=0.5;entryY=1;entryDx=0;entryDy=0;fillColor=#e51400;strokeColor=#B20000;" parent="1" source="uRyDppkniiyFRWta832O-18" target="uRyDppkniiyFRWta832O-10" edge="1">
          <mxGeometry relative="1" as="geometry">
            <mxPoint x="680" y="280" as="targetPoint" />
            <Array as="points">
              <mxPoint x="660" y="490" />
            </Array>
          </mxGeometry>
        </mxCell>
        <mxCell id="uRyDppkniiyFRWta832O-18" value="Boost" style="swimlane;fontStyle=0;childLayout=stackLayout;horizontal=1;startSize=26;fillColor=none;horizontalStack=0;resizeParent=1;resizeParentMax=0;resizeLast=0;collapsible=1;marginBottom=0;" parent="1" vertex="1">
          <mxGeometry x="70" y="490" width="140" height="130" as="geometry" />
        </mxCell>
        <mxCell id="uRyDppkniiyFRWta832O-19" value="position &#xa;&#xa;color&#xa;taille&#xa;fonctionalite&#xa;" style="text;strokeColor=none;fillColor=none;align=left;verticalAlign=top;spacingLeft=4;spacingRight=4;overflow=hidden;rotatable=0;points=[[0,0.5],[1,0.5]];portConstraint=eastwest;" parent="uRyDppkniiyFRWta832O-18" vertex="1">
          <mxGeometry y="26" width="140" height="104" as="geometry" />
        </mxCell>
        <mxCell id="uRyDppkniiyFRWta832O-22" value="piste" style="swimlane;fontStyle=0;childLayout=stackLayout;horizontal=1;startSize=26;fillColor=none;horizontalStack=0;resizeParent=1;resizeParentMax=0;resizeLast=0;collapsible=1;marginBottom=0;" parent="1" vertex="1">
          <mxGeometry x="280" y="80" width="140" height="100" as="geometry" />
        </mxCell>
        <mxCell id="uRyDppkniiyFRWta832O-23" value="tallie&#xa;forme&#xa;color&#xa;position" style="text;strokeColor=none;fillColor=none;align=left;verticalAlign=top;spacingLeft=4;spacingRight=4;overflow=hidden;rotatable=0;points=[[0,0.5],[1,0.5]];portConstraint=eastwest;" parent="uRyDppkniiyFRWta832O-22" vertex="1">
          <mxGeometry y="26" width="140" height="74" as="geometry" />
        </mxCell>
        <mxCell id="uRyDppkniiyFRWta832O-47" style="edgeStyle=orthogonalEdgeStyle;rounded=0;orthogonalLoop=1;jettySize=auto;html=1;exitX=1;exitY=0;exitDx=0;exitDy=0;fillColor=#e51400;strokeColor=#B20000;" parent="1" source="uRyDppkniiyFRWta832O-26" target="uRyDppkniiyFRWta832O-13" edge="1">
          <mxGeometry relative="1" as="geometry">
            <Array as="points">
              <mxPoint x="540" y="330" />
              <mxPoint x="540" y="251" />
            </Array>
          </mxGeometry>
        </mxCell>
        <mxCell id="uRyDppkniiyFRWta832O-26" value="Obstacle" style="swimlane;fontStyle=0;childLayout=stackLayout;horizontal=1;startSize=26;fillColor=none;horizontalStack=0;resizeParent=1;resizeParentMax=0;resizeLast=0;collapsible=1;marginBottom=0;" parent="1" vertex="1">
          <mxGeometry x="440" y="330" width="140" height="100" as="geometry" />
        </mxCell>
        <mxCell id="uRyDppkniiyFRWta832O-27" value="taille&#xa;color&#xa;masse&#xa;position&#xa;" style="text;strokeColor=none;fillColor=none;align=left;verticalAlign=top;spacingLeft=4;spacingRight=4;overflow=hidden;rotatable=0;points=[[0,0.5],[1,0.5]];portConstraint=eastwest;" parent="uRyDppkniiyFRWta832O-26" vertex="1">
          <mxGeometry y="26" width="140" height="74" as="geometry" />
        </mxCell>
        <mxCell id="uRyDppkniiyFRWta832O-46" style="edgeStyle=orthogonalEdgeStyle;rounded=0;orthogonalLoop=1;jettySize=auto;html=1;exitX=1;exitY=0.25;exitDx=0;exitDy=0;entryX=0.5;entryY=1;entryDx=0;entryDy=0;entryPerimeter=0;fillColor=#e51400;strokeColor=#B20000;" parent="1" source="uRyDppkniiyFRWta832O-30" target="uRyDppkniiyFRWta832O-13" edge="1">
          <mxGeometry relative="1" as="geometry" />
        </mxCell>
        <mxCell id="phEmy2SOg12OLyazEtQn-3" style="edgeStyle=orthogonalEdgeStyle;rounded=0;orthogonalLoop=1;jettySize=auto;html=1;exitX=0.75;exitY=0;exitDx=0;exitDy=0;fontColor=#FF0080;strokeColor=#000000;" edge="1" parent="1" source="uRyDppkniiyFRWta832O-30">
          <mxGeometry relative="1" as="geometry">
            <mxPoint x="370" y="180" as="targetPoint" />
          </mxGeometry>
        </mxCell>
        <mxCell id="uRyDppkniiyFRWta832O-30" value="voiture" style="swimlane;fontStyle=0;childLayout=stackLayout;horizontal=1;startSize=26;fillColor=none;horizontalStack=0;resizeParent=1;resizeParentMax=0;resizeLast=0;collapsible=1;marginBottom=0;" parent="1" vertex="1">
          <mxGeometry x="274" y="570" width="140" height="180" as="geometry" />
        </mxCell>
        <mxCell id="uRyDppkniiyFRWta832O-31" value="taille &#xa;position&#xa;color&#xa;masse&#xa;acceleration&#xa;vitesse max&#xa;vitesse mini&#xa;vitesse&#xa;acceleration&#xa;" style="text;strokeColor=none;fillColor=none;align=left;verticalAlign=top;spacingLeft=4;spacingRight=4;overflow=hidden;rotatable=0;points=[[0,0.5],[1,0.5]];portConstraint=eastwest;" parent="uRyDppkniiyFRWta832O-30" vertex="1">
          <mxGeometry y="26" width="140" height="154" as="geometry" />
        </mxCell>
        <mxCell id="uRyDppkniiyFRWta832O-34" style="edgeStyle=orthogonalEdgeStyle;rounded=0;orthogonalLoop=1;jettySize=auto;html=1;exitX=1;exitY=0.5;exitDx=0;exitDy=0;entryX=0;entryY=0.5;entryDx=0;entryDy=0;" parent="1" source="uRyDppkniiyFRWta832O-9" target="uRyDppkniiyFRWta832O-23" edge="1">
          <mxGeometry relative="1" as="geometry" />
        </mxCell>
        <mxCell id="uRyDppkniiyFRWta832O-35" style="edgeStyle=orthogonalEdgeStyle;rounded=0;orthogonalLoop=1;jettySize=auto;html=1;exitX=1;exitY=0.5;exitDx=0;exitDy=0;entryX=0;entryY=0.5;entryDx=0;entryDy=0;" parent="1" source="uRyDppkniiyFRWta832O-15" target="uRyDppkniiyFRWta832O-23" edge="1">
          <mxGeometry relative="1" as="geometry" />
        </mxCell>
        <mxCell id="uRyDppkniiyFRWta832O-37" style="edgeStyle=orthogonalEdgeStyle;rounded=0;orthogonalLoop=1;jettySize=auto;html=1;exitX=1;exitY=0.5;exitDx=0;exitDy=0;" parent="1" source="uRyDppkniiyFRWta832O-19" target="uRyDppkniiyFRWta832O-23" edge="1">
          <mxGeometry relative="1" as="geometry">
            <Array as="points">
              <mxPoint x="230" y="568" />
              <mxPoint x="230" y="143" />
            </Array>
          </mxGeometry>
        </mxCell>
        <mxCell id="uRyDppkniiyFRWta832O-38" style="edgeStyle=orthogonalEdgeStyle;rounded=0;orthogonalLoop=1;jettySize=auto;html=1;exitX=0;exitY=0.5;exitDx=0;exitDy=0;entryX=0.5;entryY=1;entryDx=0;entryDy=0;" parent="1" source="uRyDppkniiyFRWta832O-27" target="uRyDppkniiyFRWta832O-22" edge="1">
          <mxGeometry relative="1" as="geometry">
            <mxPoint x="359" y="260" as="targetPoint" />
            <Array as="points">
              <mxPoint x="350" y="393" />
            </Array>
          </mxGeometry>
        </mxCell>
        <mxCell id="uRyDppkniiyFRWta832O-41" style="edgeStyle=orthogonalEdgeStyle;rounded=0;orthogonalLoop=1;jettySize=auto;html=1;exitX=0;exitY=0.5;exitDx=0;exitDy=0;" parent="1" source="uRyDppkniiyFRWta832O-9" target="uRyDppkniiyFRWta832O-31" edge="1">
          <mxGeometry relative="1" as="geometry">
            <Array as="points">
              <mxPoint x="10" y="133" />
              <mxPoint x="10" y="710" />
              <mxPoint x="330" y="710" />
              <mxPoint x="330" y="673" />
            </Array>
          </mxGeometry>
        </mxCell>
        <mxCell id="uRyDppkniiyFRWta832O-48" style="edgeStyle=orthogonalEdgeStyle;rounded=0;orthogonalLoop=1;jettySize=auto;html=1;exitX=1;exitY=0.5;exitDx=0;exitDy=0;fillColor=#e51400;strokeColor=#B20000;" parent="1" source="uRyDppkniiyFRWta832O-23" edge="1">
          <mxGeometry relative="1" as="geometry">
            <mxPoint x="590" y="160" as="targetPoint" />
          </mxGeometry>
        </mxCell>
      </root>
    </mxGraphModel>
  </diagram>
</mxfile>
